<?xml version="1.0" encoding="utf-8"?>
<!-- Generator: Adobe Illustrator 17.0.0, SVG Export Plug-In . SVG Version: 6.00 Build 0)  -->
<!DOCTYPE svg PUBLIC "-//W3C//DTD SVG 1.1//EN" "http://www.w3.org/Graphics/SVG/1.1/DTD/svg11.dtd">
<svg version="1.1" id="Camada_1" xmlns="http://www.w3.org/2000/svg" xmlns:xlink="http://www.w3.org/1999/xlink" x="0px" y="0px"
	 width="146px" height="38px" viewBox="0 0 146 38" enable-background="new 0 0 146 38" xml:space="preserve">
<title>Shape Copy</title>
<desc>Created with Sketch.</desc>
<g id="v2.2.0">
	<g id="首页-默认效果-copy-2" transform="translate(-70.000000, -19.000000)">
		<path id="Shape-Copy" fill="#409EFF" d="M212.135,45.158c0,0,0.285-0.007,0.826,0s0.688,0.413,0.688,0.413
			s1.085,1.996,1.376,2.478c0.259,0.43-0.051,0.422-0.123,0.415c0.001-0.001-0.015-0.002-0.015-0.002s0.006,0.001,0.015,0.002
			c-0.003,0.004-0.307,0.014-3.454-0.002c-4.389-0.596-4.54-4.544-4.54-4.544v-7.022h-2.476v-2.616c0-0.357,0.413-0.413,0.413-0.413
			h2.064v-2.616c0-0.427,0.413-0.551,0.413-0.551s1.453-0.415,2.298-0.657c0.347-0.099,0.454,0.106,0.454,0.106
			s0.138-0.073,0.138,0.242v3.613h3.577c0.348,0,0.413,0.413,0.413,0.413v2.616h-3.99v6.058
			C210.209,44.853,212.135,45.158,212.135,45.158L212.135,45.158z M201.542,48.187h-2.201c-0.432,0-0.413-0.551-0.413-0.551V37.448
			c0-0.619-0.826-0.826-0.826-0.826h-4.54c-0.677,0-0.688,0.826-0.688,0.826v10.326c0,0.405-0.413,0.413-0.413,0.413h-2.201
			c-0.484,0-0.413-0.551-0.413-0.551V34.832c0-1.028,1.238-1.239,1.238-1.239h9.631c0.962,0,1.238,1.239,1.238,1.239v12.667
			C201.954,48.219,201.542,48.187,201.542,48.187L201.542,48.187z M185.857,42.404h-8.53v2.065c0,0.744,0.963,0.964,0.963,0.964
			h6.879c0.49,0,0.826,0.413,0.826,0.413s0.6,1.249,0.826,1.79c0.225,0.541-0.413,0.551-0.413,0.551h-10.319
			c-1.243,0-1.513-1.515-1.513-1.515V34.969c0-0.673,0.963-0.964,0.963-0.964h10.319c1.037,0,1.238,1.239,1.238,1.239v5.92
			C187.095,42.164,185.857,42.404,185.857,42.404L185.857,42.404z M184.344,37.448c0,0-0.087-0.688-0.688-0.688h-5.641
			c0,0-0.688,0.185-0.688,0.688v1.515c0,0,0.02,0.688,0.688,0.688h5.641c0,0,0.688-0.17,0.688-0.826V37.448L184.344,37.448z
			 M171.411,48.187h-2.201c-0.29,0-0.413-0.413-0.413-0.413V37.448c0-0.64-0.826-0.826-0.826-0.826h-2.064
			c-0.576,0-0.688,0.826-0.688,0.826v10.326c0,0.343-0.413,0.413-0.413,0.413h-2.201c-0.306,0-0.413-0.413-0.413-0.413V37.448
			c0-0.655-0.826-0.826-0.826-0.826h-2.064c-0.63,0-0.688,0.826-0.688,0.826v10.326c0,0.442-0.413,0.413-0.413,0.413h-2.201
			c-0.412,0-0.413-0.413-0.413-0.413v-13.08c0-0.758,1.101-1.101,1.101-1.101h13.758c1.104,0,1.376,1.377,1.376,1.377v12.804
			C171.824,48.249,171.411,48.187,171.411,48.187L171.411,48.187z M151.461,42.404h-8.53v2.065c0,0.744,0.963,0.964,0.963,0.964
			h6.879c0.49,0,0.826,0.413,0.826,0.413s0.6,1.249,0.825,1.79c0.225,0.541-0.413,0.551-0.413,0.551h-10.319
			c-1.243,0-1.513-1.515-1.513-1.515V34.969c0-0.673,0.963-0.964,0.963-0.964h10.319c1.037,0,1.238,1.239,1.238,1.239v5.92
			C152.7,42.164,151.461,42.404,151.461,42.404L151.461,42.404z M149.948,37.448c0,0-0.087-0.688-0.688-0.688h-5.641
			c0,0-0.688,0.185-0.688,0.688v1.515c0,0,0.02,0.688,0.688,0.688h5.641c0,0,0.688-0.17,0.688-0.826V37.448L149.948,37.448z
			 M138.116,48.187h-5.228c0,0-3.826-0.181-4.127-3.993c-0.012-3.915,0-16.109,0-16.109h2.476c0,0,0.826-0.015,0.826,0.826v14.457
			c0,0,0.288,1.196,1.926,1.652c1.851-0.009,2.201,0,2.201,0s0.717-0.23,1.238,0.688s1.101,1.928,1.101,1.928
			S138.612,48.187,138.116,48.187L138.116,48.187z M111.563,47.361V29.187c0-0.806,0.688-0.964,0.688-0.964h12.933
			c0.723,0,0.413,0.826,0.413,0.826s-0.403,1.117-0.688,1.652c-0.285,0.535-0.825,0.551-0.825,0.551h-8.393
			c-0.781,0-0.826,0.688-0.826,0.688v4.544h9.493c0.557,0,0.275,0.688,0.275,0.688s-0.711,1.517-0.963,1.928
			c-0.252,0.411-0.825,0.413-0.825,0.413h-7.98v4.819c0,0.657,0.688,0.826,0.688,0.826h8.805c0.639,0,0.825,0.413,0.825,0.413
			s0.872,1.362,1.238,1.928c0.366,0.566-0.138,0.688-0.138,0.688h-13.896C111.814,48.187,111.563,47.361,111.563,47.361z
			 M103.417,46.218c-0.009,1.577-0.829,1.929-0.829,1.929s-14.136,8.168-15.055,8.68c-0.911,0.391-1.519,0-1.519,0
			s-14.791-8.578-15.331-8.955c-0.54-0.377-0.553-0.964-0.553-0.964s0.015-16.986,0-17.773c-0.015-0.787,0.967-1.378,0.967-1.378
			l14.779-8.542c0.91-0.48,1.796,0,1.796,0s13.055,7.589,14.502,8.404c1.418,0.674,1.243,2.067,1.243,2.067
			S103.425,44.752,103.417,46.218L103.417,46.218z M97.516,29.169c-3.026-1.742-10.154-5.872-10.154-5.872s-0.695-0.376-1.41,0
			l-11.603,6.685c0,0-0.771,0.463-0.759,1.078s0,13.909,0,13.909s0.01,0.46,0.434,0.755c0.424,0.295,12.037,7.009,12.037,7.009
			s0.478,0.306,1.193,0c0.722-0.401,11.82-6.793,11.82-6.793s0.643-0.275,0.651-1.51c0.002-0.356,0.003-1.737,0.003-3.473
			L86.66,48.875v-3.029c0-1.244,0.963-2.065,0.963-2.065l11.558-6.964c0.436-0.455,0.526-1.185,0.545-1.461
			c0-1.265-0.001-2.37-0.001-3.07L86.66,40.201v-3.167c0-1.244,0.826-1.79,0.826-1.79L97.516,29.169z"/>
	</g>
</g>
</svg>
