<?xml version="1.0" encoding="utf-8"?>
<!-- Generator: Adobe Illustrator 17.0.0, SVG Export Plug-In . SVG Version: 6.00 Build 0)  -->
<!DOCTYPE svg PUBLIC "-//W3C//DTD SVG 1.1//EN" "http://www.w3.org/Graphics/SVG/1.1/DTD/svg11.dtd">
<svg version="1.1" id="Camada_1" xmlns="http://www.w3.org/2000/svg" xmlns:xlink="http://www.w3.org/1999/xlink" x="0px" y="0px"
	 width="33.42px" height="38px" viewBox="0 0 33.42 38" enable-background="new 0 0 33.42 38" xml:space="preserve">
<title>Shape Copy</title>
<desc>Created with Sketch.</desc>
<g id="v2.2.0">
	<g id="首页-默认效果-copy-2" transform="translate(-70.000000, -19.000000)">
		<path id="Shape-Copy" fill="#FFFFFF" d="M103.417,46.218c-0.009,1.577-0.829,1.929-0.829,1.929s-14.136,8.168-15.055,8.68
			c-0.911,0.391-1.519,0-1.519,0s-14.791-8.578-15.331-8.955s-0.553-0.964-0.553-0.964s0.015-16.986,0-17.773
			s0.967-1.378,0.967-1.378l14.779-8.542c0.91-0.48,1.796,0,1.796,0s13.055,7.589,14.502,8.404c1.418,0.674,1.243,2.067,1.243,2.067
			S103.425,44.752,103.417,46.218L103.417,46.218z M97.516,29.169c-3.026-1.742-10.154-5.872-10.154-5.872s-0.695-0.376-1.41,0
			l-11.603,6.685c0,0-0.771,0.463-0.759,1.078s0,13.909,0,13.909s0.01,0.46,0.434,0.755c0.424,0.295,12.037,7.009,12.037,7.009
			s0.478,0.306,1.193,0c0.722-0.401,11.82-6.793,11.82-6.793s0.643-0.275,0.651-1.51c0.002-0.356,0.003-1.737,0.003-3.473
			L86.66,48.875v-3.029c0-1.244,0.963-2.065,0.963-2.065l11.558-6.964c0.436-0.455,0.526-1.185,0.545-1.461
			c0-1.265-0.001-2.37-0.001-3.07L86.66,40.201v-3.167c0-1.244,0.826-1.79,0.826-1.79L97.516,29.169z"/>
	</g>
</g>
</svg>
